/* XPM */
static char * screens_xpm[] = {
"320 32 14 1",
" 	c None",
".	c #000000",
"+	c #0000FF",
"@	c #800080",
"#	c #008000",
"$	c #FF0000",
"%	c #008080",
"&	c #FF00FF",
"*	c #808080",
"=	c #00FF00",
"-	c #00FFFF",
";	c #C0C0C0",
">	c #FFFF00",
",	c #FFFFFF",
"$$$$$$$$$$........&&&&&&&&&&&&&&@@@.@@@.@@@.@@@.@@@.@@@.@@@.@@@..>>>>>>>>>>>>>>>>>>>>>>>>>>>>>>.@@@@@@@@@@@@@@%%%%@@@@@@@@@@@@@@+++++++++++++++$$$$$++++++++++++@@@@@@@@@@@@@@@@@@@@@@@@@@@@@@@@%%%%%%%%%%%%%%%..%%%%%%%%%%%%%%%,======,#######,#######,=======,+++--------++++++++--------+++++.............................>>>",
"$$$$$$$$$$.......+&&&&&&&&&&&&&&@.@.@.@.@.@.@.@.@.@.@.@.@.@.@.@.................................@@@@@@@@@@@@@%%%%%%@@@@@@@@@@@@@++++++++++++++++++++$$++++++++++@@++++++++@@@@@@@@@@@@@+++++++@@%%%%%%%%%%%%%%.,,.%%%%%%%%%%%%%%=,======,######,######,=======,=+++--------++++++++--------+++++..........++..............>>>...",
".$$$$$$$$......++++&&&&&&&&&&&&.@@@.@@@.@@@.@@@.@@@.@@@.@@@.@@@.................................@@@@@@@@@@@@%%$%%>%%@@@@@@@@@@@@++++++++++++++++++++++$+++++++++@@@+++++++@@@@@@@@@@@@@++++++@@@%%%%%%%%%%%%%.,,,,.%%%%%%%%%%%%%==,=====,######,######,======,==+++--------++++++++--------+++++.........+..+............>......",
"..$$$$$$.....++++++++&&&&&&&&.....................................>..........................>..@@@@@@@@@@@%%$$%%>>%%@@@@@@@@@@@+++++++++++++++++++++++$++++++++@@@@+++++++@@@@@@@@@@@++++++@@@@%%%%%%%%%%%%.,,,,,,.%%%%%%%%%%%%===,=====,#####,#####,======,===+++--------++++++++--------+++++........+....+.........>>.......",
"...$$$$.....+++++++++++++++......@@@.@@@.@@@.@@@.@@@.@@@.@@@.@@@..>>........................>>..@@@@@@@@@@%%$$$%%>>>%%@@@@@@@@@@++++++++++++++++++++++++$+++++++@@@@@+++++++@@@@@@@@@++++++@@@@@%%%%%%%%%%%.,,,,,,,,.%%%%%%%%%%%====,====,#####,#####,=====,====&&&--------&&&&&&&&&&&&&&&&&&&&&........+....+........>.........",
"............+++++++++++++++......@.@.@.@.@.@.@.@.@.@.@.@.@.@.@.@..>>..>>>>>>>>>>>>>>>>>>>>..>>..@@@@@@@@@%%$$$$%%>>>>%%@@@@@@@@@++++++++++++++++++++++++$+++++++@@@@@@++++++++@@@@@+++++++@@@@@@%%%%%%%%%%.,,,,,,,,,,.%%%%%%%%%%=====,====,####,####,=====,=====&&&--------&&&&&&&&&&&&&&&&&&&&&.......+......+.......>.........",
"...........+++++++++++++++++.....@@@.@@@.@@@.@@@.@@@.@@@.@@@.@@@..>>...>>>>>>>>>>>>>>>>>>...>>..@@@@@@@@%%$$$$$%%>>>>>%%@@@@@@@@+++++++++++++++++++++++++$++++++@@@@@@@++++++++@@++++++++@@@@@@@%%%%%%%%%.,,,,,,,,,,,,.%%%%%%%%%======,===,####,####,====,======&&&--------&&&&&&&&&&&&&&&&&&&&&==.....+......+..$$$$$.......===",
"...........+++++++++++++++++......................................>>........................>>..@@@@@@@%%$$$$$$%%>>>>>>%%@@@@@@@+++++++++++++++++++++++++$++++++@@@@@@@@+++++++@@+++++++@@@@@@@@%%%%%%%%.,,,,,,,,,,,,,,.%%%%%%%%=======,===,###,###,====,=======&&&--------&&&&&&&&&&&&&&&&&&&&&..=....+......+$$....>$$...==...",
">>>>>>>>>>>+++++++++++++++++>>>>@@@.@@@.@@@.@@@.@@@.@@@.@@@.@@@...>>........................>>..@@@@@@%%$$$$$$$%%>>>>>>>%%@@@@@@+++++++++++++++++++++++++$++++++@@@@@@@@@++++++@@++++++@@@@@@@@@%%%%%%%.,,,,,,,,,,,,,,,,.%%%%%%%,=======,==,###,###,===,=======,&&&--------&&&&&&&&&&&&&&&&&&&&&...=...+.....$+......>..$$=.....",
">>>>>>>>>>>+++++++++++++++++>>>>@.@.@.@.@.@.@.@.@.@.@.@.@.@.@.@...>>....>..............>....>>..@@@@@%%$$$$$$$$%%>>>>>>>>%%@@@@@+++++++++++++++++++++++++$++++++@@@@@@@@@@+++++@@+++++@@@@@@@@@@%%%%%%.,,,,,,,,,,,,,,,,,,.%%%%%%#,,======,==,##,##,===,======,,#&&&--------&&&&&&&&&&&&&&&&&&&&&....=.+.....$..+.....>...=$.....",
">>>>>>>>>>>+++++++++++++++++>>>>@@@.@@@.@@@.@@@.@@@.@@@.@@@.@@@...>>....>>............>>....>>..@@@@%%$$$$$$$$$%%>>>>>>>>>%%@@@@+++++++++++++++++++++++++$++++++@@@@@@@@@@@++++@@++++@@@@@@@@@@@%%%%%.,,,,,,,,,,,,,,,,,,,,.%%%%%###,,=====,=,##,##,==,=====,,###&&&--------&&&&&&&&&&&&&&&&&&&&&....=.+.....$..+......>.=.$.....",
">>>>>>>>>>>+++++++++++++++++>>>>..................................>>....>>..>>>>>>>>..>>....>>..@@@%%$$$$$$$$$$%%>>>>>>>>>>%%@@@+++++>>>>>++++++++++++++$+++++++@@@@@@@@@@@@+++@@+++@@@@@@@@@@@@%%%%.,,,,,,,,,,,,,,,,,,,,,,.%%%%#####,,====,=,#,#,==,====,,#####&&&--------&&&&&&&&&&&&&&&&&&&&&.....=+....$...+......>.=..$....",
"*******>>>>>+++++++++++++*******.@@@.@@@.@@@.@@@.@@@.@@@.@@@.@@@..>>....>>...>>>>>>...>>....>>..@@%%$$$$$$$$$$$%%>>>>>>>>>>>%%@@+++>>+++++>>++++++++++++$+++++++@@@@@@@@@@@@@++@@++@@@@@@@@@@@@@%%%.,,,,,,,,,,,,,,,,,,,,,,,,.%%%#######,,===,,#,#,=,===,,#######+++--------++++++++--------+++++.....=+...$....+.......=>...$...",
"*******>>>>>+++++++++++++*******.@.@.@.@.@.@.@.@.@.@.@.@.@.@.@.@..>>....>>............>>....>>..@%%$$$$$$$$$$$$%%>>>>>>>>>>>>%%@++>+++++++++>++++++++++$++++++++@@@@@@@@@@@@@@+@@+@@@@@@@@@@@@@@%%.,,,,,,,,,,,,,,,,,,,,,,,,,,.%%#########,,==,,,,=,==,,#########+++--------++++++++--------+++++.....=+...$....+.......=.>..$...",
"*******>>>>>.++++++++++++*******.@@@.@@@.@@@.@@@.@@@.@@@.@@@.@@@..>>....>>............>>....>>..%%$$$$$$$$$$$$$%%>>>>>>>>>>>>>%%+>+++++++++++>++++++++$+++++++++@@@@@@@@@@@@@@@@@@@@@@@@@@@@@@@@%.,,,,,,,,,,,,,,,,,,,,,,,,,,,,.%###########,,=,,,,=,,###########+++--------++++++++--------+++++.....=+...$....+.......=..>>$...",
"*******>>>>>..+++++++++++*******..................................>>....>>....>..>....>>....>>..%%%%%%%%%%%%%%%%%%%%%%%%%%%%%%%%>+++++++++++++>+++++$$++++++++++@@@@@@@@@@@@@@@@@@@@@@@@@@@@@@@@.,,,,,,,,,,,,,,,,,,,,,,,,,,,,,,.#############,,,,,,#############+++--------++++++++--------+++++.....=+..$.....+......&&&&&..$>>",
"*******>>>>>....+++++++>>*******@@@.@@@.@@@.@@@.@@@.@@@.@@@.@@@...>>....>>....>..>....>>....>>..%%%%%%%%%%%%%%%%%%%%%%%%%%%%%%%%>+++++++++++++>$$$$$++++++++++++@@@@@@@@@@@@@@@@@@@@@@@@@@@@@@@@.,,,,,,,,,,,,,,,,,,,,,,,,,,,,,,.,,,,,,,,,,,,,,,,,,,,,,,,,,,,,,,,+++--------++++++++--------+++++>>>>>=+..$.....+....&&.=...&&$..",
"*******>>>>>.........>>>>*******@.@.@.@.@.@.@.@.@.@.@.@.@.@.@.@...>>....>>............>>....>>..%%=============%%+++++++++++++%%+++++++++++++$$>+++++++++++++++>@@@@@@@@@@@@@@@@@@@@@@@@@@@@@@@@%.,,,,,,,,,,,,,,,,,,,,,,,,,,,,.%#############,,,,,,#############+++--------++++++++--------+++++.....=+..$.....+...&....=....&..",
"*******>>>>>.........>>>>*******@@@.@@@.@@@.@@@.@@@.@@@.@@@.@@@...>>....>>............>>....>>..;%%============%%++++++++++++%%;++++++++++++$++>+++++++++++++++>@@@@@@@@@@@@@@+@@+@@@@@@@@@@@@@@%%.,,,,,,,,,,,,,,,,,,,,,,,,,,.%%###########,,,,,,=,,,###########+++--------++++++++--------+++++....=.+>.$.....+..&.....=....$&.",
"*******>>>>>....=....>>>>*******..................................>>....>>...>>>>>>...>>....>>..;;%%===========%%+++++++++++%%;;+++++++++++$+++>+++++++++++++++>@@@@@@@@@@@@@++@@++@@@@@@@@@@@@@%%%.,,,,,,,,,,,,,,,,,,,,,,,,.%%%#########,,=,,#,#,=,=,,#########+++--------++++++++--------+++++....=.+.>$.....+..&......=...$&.",
"*******>>>>>...===...>>>>*******.@@@.@@@.@@@.@@@.@@@.@@@.@@@.@@@..>>....>>..>>>>>>>>..>>....>>..;;;%%==========%%++++++++++%%;;;++++++++++$++++>+++++++++++++++>@@@@@@@@@@@@+++@@+++@@@@@@@@@@@@%%%%.,,,,,,,,,,,,,,,,,,,,,,.%%%%#######,,==,=,#,#,==,==,,#######&&&&&&&&&&&&&&&&&&&--------&&&&&...=..+..$.....+.&........=..$.&",
"*******>>>>>..=====..>>>>*******.@.@.@.@.@.@.@.@.@.@.@.@.@.@.@.@..>>....>>............>>....>>..;;;;%%=========%%+++++++++%%;;;;++++++++++$++++>+++++++++++++++>@@@@@@@@@@@++++@@++++@@@@@@@@@@@%%%%%.,,,,,,,,,,,,,,,,,,,,.%%%%%#####,,===,=,##,##,==,===,,#####&&&&&&&&&&&&&&&&&&&--------&&&&&..=...+..>$....+.&.........=$..&",
">>>>>>>>>>>>.=======.>>>>>>>>>>>.@@@.@@@.@@@.@@@.@@@.@@@.@@@.@@@..>>....>..............>....>>..;;;;;%%========%%++++++++%%;;;;;+++++++++$++++++>+++++++++++++>+@@@@@@@@@@+++++@@+++++@@@@@@@@@@%%%%%%.,,,,,,,,,,,,,,,,,,.%%%%%%###,,====,==,##,##,===,====,,###&&&&&&&&&&&&&&&&&&&--------&&&&&==.....+..$...+..&..........$==&",
">>>>>>>>>>>>=========>>>>>>>>>>>..................................>>........................>>..;;;;;;%%=======%%+++++++%%;;;;;;+++++++++$++++++>+++++++++++++>+@@@@@@@@@++++++@@++++++@@@@@@@@@%%%%%%%.,,,,,,,,,,,,,,,,.%%%%%%%#,,=====,==,###,###,===,=====,,#&&&&&&&&&&&&&&&&&&&--------&&&&&.......+..$...+..&..........$..&",
">>>>>>>>>>>===========>>>>>>>>>>@@@.@@@.@@@.@@@.@@@.@@@.@@@.@@@...>>........................>>..;;;;;;;%%======%%++++++%%;;;;;;;+++++++++$+++++++>+++++++++++>++@@@@@@@@+++++++@@+++++++@@@@@@@@%%%%%%%%.,,,,,,,,,,,,,,.%%%%%%%%,======,===,###,###,====,======,&&&&&&&&&&&&&&&&&&&--------&&&&&.......+..>$..+...&........$..&.",
"..........=============.........@.@.@.@.@.@.@.@.@.@.@.@.@.@.@.@...>>...>>>>>>>>>>>>>>>>>>...>>..;;;;;;;;%%=====%%+++++%%;;;;;;;;+++++++++$++++++++>+++++++++>+++@@@@@@@++++++++@@++++++++@@@@@@@%%%%%%%%%.,,,,,,,,,,,,.%%%%%%%%%======,===,####,####,====,======&&&&&&&&&&&&&&&&&&&--------&&&&&.......+..>.$.+...&.......$...&.",
".........===============........@@@.@@@.@@@.@@@.@@@.@@@.@@@.@@@...>>..>>>>>>>>>>>>>>>>>>>>..>>..;;;;;;;;;%%====%%++++%%;;;;;;;;;+++++++++$+++++++++>>+++++>>++++@@@@@@++++++++@@@@@+++++++@@@@@@%%%%%%%%%%.,,,,,,,,,,.%%%%%%%%%%=====,====,####,####,=====,=====&&&&&&&&&&&&&&&&&&&--------&&&&&........+>..$+.....&......$..&..",
"...$$$$.=================.........................................>>........................>>..;;;;;;;;;;%%===%%+++%%;;;;;;;;;;++++++++++$++++++++++>>>>>++++++@@@@@+++++++@@@@@@@@@++++++@@@@@%%%%%%%%%%%.,,,,,,,,.%%%%%%%%%%%====,====,#####,#####,=====,====&&&&&&&&&&&&&&&&&&&--------&&&&&........+>...+$.....&&..$$.&&...",
"..$$$$$$.............&&&&&&&&....@@@.@@@.@@@.@@@.@@@.@@@.@@@.@@@..>..........................>..;;;;;;;;;;;%%==%%++%%;;;;;;;;;;;++++++++++$+++++++++++++++++++++@@@@+++++++@@@@@@@@@@@++++++@@@@%%%%%%%%%%%%.,,,,,,.%%%%%%%%%%%%===,=====,#####,#####,======,===+++--------++++++++--------+++++........>+..+..$$.....&&&&&.....",
".$$$$$$$$..........&&&&&&&&&&&&..@.@.@.@.@.@.@.@.@.@.@.@.@.@.@.@................................;;;;;;;;;;;;%%=%%+%%;;;;;;;;;;;;+++++++++++$++++++++++++++++++++@@@+++++++@@@@@@@@@@@@@++++++@@@%%%%%%%%%%%%%.,,,,.%%%%%%%%%%%%%==,=====,######,######,======,==+++--------++++++++--------+++++.......>..++.....$$$$$..........",
"$$$$$$$$$$........&&&&&&&&&&&&&&.@@@.@@@.@@@.@@@.@@@.@@@.@@@.@@@................................;;;;;;;;;;;;;%%%%%%;;;;;;;;;;;;;++++++++++++$+++++++++++++++++++@@++++++++@@@@@@@@@@@@@+++++++@@%%%%%%%%%%%%%%.,,.%%%%%%%%%%%%%%=,======,######,######,=======,=+++--------++++++++--------+++++.....>>.........................",
"$$$$$$$$$$........&&&&&&&&&&&&&&.................................>>>>>>>>>>>>>>>>>>>>>>>>>>>>>>.;;;;;;;;;;;;;;%%%%;;;;;;;;;;;;;;+++++++++++++$$+++++++++++++++++@@@@@@@@@@@@@@@@@@@@@@@@@@@@@@@@%%%%%%%%%%%%%%%..%%%%%%%%%%%%%%%,======,#######,#######,=======,+++--------++++++++--------+++++>>>>>..........................."};
